<svg width="44" height="43" viewBox="0 0 44 43" fill="none" xmlns="http://www.w3.org/2000/svg">
<path d="M31.9012 12.8746H31.9215M16.7297 39.226H27.2702C36.054 39.226 39.5675 35.7124 39.5675 26.9287V16.3881C39.5675 7.60433 36.054 4.09082 27.2702 4.09082H16.7297C7.94589 4.09082 4.43237 7.60433 4.43237 16.3881V26.9287C4.43237 35.7124 7.94589 39.226 16.7297 39.226ZM28.1486 21.6584C28.1486 25.0542 25.3957 27.807 21.9999 27.807C18.6041 27.807 15.8513 25.0542 15.8513 21.6584C15.8513 18.2626 18.6041 15.5097 21.9999 15.5097C25.3957 15.5097 28.1486 18.2626 28.1486 21.6584Z" stroke="#063643" stroke-width="2.63513" stroke-linecap="round" stroke-linejoin="round"/>
</svg>
