<svg width="43" height="42" viewBox="0 0 43 42" fill="none" xmlns="http://www.w3.org/2000/svg">
<path fill-rule="evenodd" clip-rule="evenodd" d="M31.2807 25.0324C30.7562 24.7791 28.1773 23.5548 27.6964 23.386C27.2156 23.2171 26.866 23.1327 26.5163 23.6393C26.1666 24.1459 25.1614 25.2857 24.8554 25.6235C24.5494 25.9611 24.2435 26.0035 23.7189 25.7501C23.1944 25.4969 21.5043 24.9624 19.5008 23.2383C17.9414 21.8966 16.8887 20.2393 16.5827 19.7327C16.2767 19.2261 16.5501 18.9522 16.8128 18.6999C17.0486 18.4733 17.3372 18.1089 17.5995 17.8134C17.8618 17.5178 17.9492 17.3068 18.124 16.9691C18.2989 16.6313 18.2115 16.3358 18.0803 16.0825C17.9492 15.8292 16.9002 13.3384 16.4631 12.3251C16.0373 11.3384 15.6048 11.4719 15.2829 11.4564C14.9772 11.4417 14.6272 11.4386 14.2775 11.4386C13.9278 11.4386 13.3596 11.5653 12.8787 12.0718C12.3979 12.5785 11.0429 13.8028 11.0429 16.2935C11.0429 18.7844 12.9225 21.1907 13.1848 21.5285C13.447 21.8662 16.8835 26.9777 22.1454 29.1696C23.3969 29.691 24.374 30.0023 25.1357 30.2357C26.3923 30.6208 27.5358 30.5665 28.4396 30.4362C29.4473 30.2909 31.543 29.2119 31.9801 28.0298C32.4172 26.8478 32.4172 25.8345 32.2861 25.6235C32.155 25.4124 31.8053 25.2857 31.2807 25.0324M21.7096 37.64H21.7025C18.5716 37.6388 15.5007 36.8275 12.8218 35.2937L12.1846 34.9288L5.58073 36.6001L7.34345 30.3884L6.92851 29.7516C5.18192 27.0714 4.25947 23.9737 4.26078 20.793C4.26461 11.5117 12.092 3.96077 21.7165 3.96077C26.377 3.96252 30.7579 5.7158 34.0522 8.89753C37.3466 12.0794 39.1598 16.3087 39.158 20.8066C39.1541 30.0886 31.3267 37.64 21.7096 37.64M36.5597 6.47967C32.5963 2.6515 27.3254 0.542252 21.7096 0.540111C10.1386 0.540111 0.721226 9.62491 0.716587 20.7916C0.715075 24.3611 1.68169 27.8455 3.51873 30.9167L0.540527 41.4116L11.6692 38.5954C14.7354 40.2088 18.1877 41.0591 21.7012 41.0605H21.7098H21.7099C33.2797 41.0605 42.6979 31.9746 42.7027 20.8078C42.7048 15.3962 40.5233 10.3077 36.5597 6.47967" fill="#063643"/>
</svg>
